<svg xmlns="http://www.w3.org/2000/svg" viewBox="0 0 500 500"><g id="freepik--background-simple--inject-77"><path d="M99.73,285.51c21.6,30.22,133.74,63.83,195,51.75C374.16,321.58,424.9,251,398.5,172.76,374,100.11,293,77.84,223,110.31,160.64,139.24,71.88,250.36,99.73,285.51Z" style="fill:#00838E"></path><path d="M99.73,285.51c21.6,30.22,133.74,63.83,195,51.75C374.16,321.58,424.9,251,398.5,172.76,374,100.11,293,77.84,223,110.31,160.64,139.24,71.88,250.36,99.73,285.51Z" style="fill:#fff;opacity:0.9"></path></g><g id="freepik--Shadow--inject-77"><ellipse id="freepik--path--inject-77" cx="250" cy="416.24" rx="193.89" ry="11.32" style="fill:#f5f5f5"></ellipse></g><g id="freepik--Character--inject-77"><polygon points="272.06 407.62 264.34 407.62 264.01 389.76 271.73 389.76 272.06 407.62" style="fill:#ffb573"></polygon><polygon points="318.37 407.62 310.66 407.62 307.22 389.76 314.93 389.76 318.37 407.62" style="fill:#ffb573"></polygon><path d="M310.13,406.73h8.67a.64.64,0,0,1,.64.53l1.36,6.85a1.18,1.18,0,0,1-1.16,1.38c-3-.06-4.49-.23-8.3-.23-2.35,0-7.19.24-10.42.24s-3.59-3.2-2.25-3.49c6-1.3,8.25-3.1,10.2-4.81A2,2,0,0,1,310.13,406.73Z" style="fill:#263238"></path><path d="M264.41,406.73h8.43a.65.65,0,0,1,.64.53l1.36,6.85a1.16,1.16,0,0,1-1.14,1.38c-3-.06-7.43-.23-11.25-.23-4.47,0-8.33.24-13.57.24-3.16,0-4-3.2-2.63-3.49,6.07-1.32,11-1.46,16.29-4.68A3.66,3.66,0,0,1,264.41,406.73Z" style="fill:#263238"></path><path d="M264.19,165.51,256,158.13s-18,28.36-21.62,29.94c-5,2.14-21.61,16.49-27.08,19.81-.35,1.26-.26,4.73.37,5.74,9.1-.78,31.11-14.16,34.73-17.53C250.6,188.4,264.19,165.51,264.19,165.51Z" style="fill:#ffb573"></path><path d="M269.9,159.68c1.21,7.28-15.59,25.12-15.59,25.12l-13.46-11a97.73,97.73,0,0,1,12.21-16.33C260,150.42,268.58,151.7,269.9,159.68Z" style="fill:#263238"></path><path d="M250.83,182l3.48,2.82s3.77-4,7.6-9c4.49-6.52,7.95-12.42,8.06-15.15v-.07C268.26,159.35,258.52,169.92,250.83,182Z" style="opacity:0.2"></path><path d="M208.41,207.31l-7.94,1.47-.44,8.54a34,34,0,0,0,9.56-4.12Z" style="fill:#ffb573"></path><polygon points="192 211.65 193.17 216.04 200.03 217.32 200.47 208.78 192 211.65" style="fill:#ffb573"></polygon><polygon points="264.01 389.76 264.18 398.97 271.9 398.97 271.73 389.76 264.01 389.76" style="opacity:0.2"></polygon><polygon points="314.94 389.76 307.22 389.76 309 398.97 316.71 398.97 314.94 389.76" style="opacity:0.2"></polygon><polygon points="243.11 169.24 238.49 174.74 253.46 187.08 259.45 181.16 243.11 169.24" style="fill:#00838E"></polygon><path d="M258.8,153.45s-9.68,23.3-2.09,66.68H298c.44-6.33-2.78-37.23,4.06-67.07a107.14,107.14,0,0,0-13.77-1.75,153.08,153.08,0,0,0-17.54,0A78.77,78.77,0,0,0,258.8,153.45Z" style="fill:#263238"></path><path d="M292.88,160.42c-.8,4.92.46,16.67,4.8,30.25a197.86,197.86,0,0,1,3.7-34.64V156C298.67,155.69,293.66,155.82,292.88,160.42Z" style="opacity:0.2"></path><path d="M286.37,134.91c-1.25,5.64-2,12.64,1.89,16.4,0,0-2.41,5.73-12.9,5.73-9.58,0-4.64-5.73-4.64-5.73,6.33-1.5,6.19-9.28,5.2-13.67Z" style="fill:#ffb573"></path><path d="M275.92,137.65a17,17,0,0,1-.27,9.26,10.08,10.08,0,0,0,2.83-.86c3.59-1.67,5.4-4.31,7.32-8.21.16-1,.35-2,.57-2.93Z" style="opacity:0.2"></path><path d="M267.43,130.2a7.07,7.07,0,0,0,3,4.59c2.11,1.37,4-.37,4.06-2.79.08-2.17-.93-5.51-3.38-5.91A3.35,3.35,0,0,0,267.43,130.2Z" style="fill:#ffb573"></path><path d="M267.43,130.2a7.07,7.07,0,0,0,3,4.59c2.11,1.37,4-.37,4.06-2.79.08-2.17-.93-5.51-3.38-5.91A3.35,3.35,0,0,0,267.43,130.2Z" style="opacity:0.2"></path><path d="M277.73,116.85l-5.08,16.7C266,121.62,273.47,111.48,277.73,116.85Z" style="fill:#263238"></path><path d="M291.79,130.22c-3.26,7-4.81,11.26-9.85,13.6-7.57,3.53-15.05-3-13.93-10.81,1-7,6.17-17.29,14.25-17.55A10.2,10.2,0,0,1,291.79,130.22Z" style="fill:#ffb573"></path><path d="M287.33,136.29c-4,.49-.7-9.65,2.77-12.39-4.65-.62-17.14-1.66-16.54-8.45.72-8.23,10-5.77,10-3.84,1.77,1.27,15.68.22,14.32,10.76C304.7,122.66,300.89,134.66,287.33,136.29Z" style="fill:#263238"></path><path d="M297.86,122.63h-.07a.27.27,0,0,1-.18-.33c1.54-5.12-.3-6.93-2.07-7.94a.28.28,0,0,1-.1-.36.27.27,0,0,1,.36-.1c2.84,1.62,3.58,4.34,2.31,8.56A.26.26,0,0,1,297.86,122.63Z" style="fill:#263238"></path><path d="M300.11,128.21a.24.24,0,0,1-.19-.08.26.26,0,0,1,0-.37c1.51-1.36,2.12-2.57,1.77-3.5s-1.89-1.63-3.85-1.63a.26.26,0,0,1-.26-.26.26.26,0,0,1,.26-.26c2.21,0,3.88.75,4.34,2,.31.8.22,2.16-1.91,4.08A.28.28,0,0,1,300.11,128.21Z" style="fill:#263238"></path><path d="M292.09,138.5a7.4,7.4,0,0,1-5.4,1.44c-2.52-.35-2.71-2.86-1.11-4.71,1.43-1.67,4.48-3.5,6.57-2.21S294,137,292.09,138.5Z" style="fill:#ffb573"></path><path d="M256.71,220.13s-2.48,57.68-2.21,81.21c.27,24.46,6.85,95.85,6.85,95.85h13.07s2.41-70,3.58-94c1.27-26.2,5.83-83.07,5.83-83.07Z" style="fill:#00838E"></path><path d="M256.71,220.13s-2.48,57.68-2.21,81.21c.27,24.46,6.85,95.85,6.85,95.85h13.07s2.41-70,3.58-94c1.27-26.2,5.83-83.07,5.83-83.07Z" style="fill:#fff;opacity:0.4"></path><path d="M275.38,393.18c.06,0-.11,4.27-.11,4.27H260.21l-.51-4.79Z" style="fill:#263238"></path><path d="M274.38,235.4c-.45,28.62.85,46,4,60,.79-13.65,2.08-31.7,3.21-46.7Z" style="opacity:0.2"></path><path d="M271.35,220.13s7.31,59,11.57,81c4.67,24.19,22.52,96,22.52,96h14.13S308.43,327.31,306,303.37c-2.62-26-8-83.24-8-83.24Z" style="fill:#00838E"></path><path d="M271.35,220.13s7.31,59,11.57,81c4.67,24.19,22.52,96,22.52,96h14.13S308.43,327.31,306,303.37c-2.62-26-8-83.24-8-83.24Z" style="fill:#fff;opacity:0.4"></path><path d="M319.66,393.51c.06,0,.61,3.94.61,3.94H304.74l-1.26-4.53Z" style="fill:#263238"></path><path d="M280.23,128.21c-.23.58-.72.94-1.1.8s-.5-.73-.27-1.31.72-1,1.1-.81S280.46,127.62,280.23,128.21Z" style="fill:#263238"></path><path d="M273.69,125.77c-.23.58-.72.94-1.1.8s-.5-.73-.27-1.31.72-.94,1.1-.8S273.92,125.19,273.69,125.77Z" style="fill:#263238"></path><path d="M275.65,126.84a23.36,23.36,0,0,1-4.72,4,3.48,3.48,0,0,0,2.55,1.55Z" style="fill:#ed893e"></path><path d="M274.53,134.59a.17.17,0,0,1-.1-.23.18.18,0,0,1,.24-.11,5,5,0,0,0,4.45-.42.18.18,0,0,1,.25,0,.19.19,0,0,1,0,.26A5.31,5.31,0,0,1,274.53,134.59Z" style="fill:#263238"></path><path d="M283,126.81a.34.34,0,0,1-.22-.23,2.82,2.82,0,0,0-1.73-2,.35.35,0,0,1-.23-.45.36.36,0,0,1,.45-.25,3.5,3.5,0,0,1,2.21,2.44.37.37,0,0,1-.25.46A.36.36,0,0,1,283,126.81Z" style="fill:#263238"></path><path d="M271.67,122.34a.38.38,0,0,1-.12-.1.37.37,0,0,1,.05-.52,3.68,3.68,0,0,1,3.26-.81.36.36,0,0,1,.23.45.38.38,0,0,1-.46.25h0a2.91,2.91,0,0,0-2.57.67A.37.37,0,0,1,271.67,122.34Z" style="fill:#263238"></path><path d="M295.28,165.75,306,162.26s9.87,25.14,13.53,26.6c5,2,15.07,7.28,21.35,8.54.72,1.06,1.69,4.32,1.38,5.47-9,2.34-27.32-2.6-30.93-5.83C303.1,189.65,295.28,165.75,295.28,165.75Z" style="fill:#ffb573"></path><path d="M302,153.06c7.27,1.06,15,26.35,15,26.35l-15.54,8.66s-6.46-12-9.57-21C288.67,157.75,294.23,151.92,302,153.06Z" style="fill:#263238"></path><polygon points="317.01 176.66 320.94 183.51 302.03 191.52 298.68 184.33 317.01 176.66" style="fill:#00838E"></polygon><path d="M307.55,408.08a2.28,2.28,0,0,1-1.48-.4,1.05,1.05,0,0,1-.35-1,.61.61,0,0,1,.32-.52c.86-.44,3.32,1.09,3.6,1.27a.18.18,0,0,1,.08.18.21.21,0,0,1-.15.15A9.11,9.11,0,0,1,307.55,408.08Zm-1.11-1.6a.6.6,0,0,0-.24,0c-.05,0-.1.07-.12.21a.73.73,0,0,0,.23.66c.42.36,1.42.41,2.74.14A7.28,7.28,0,0,0,306.44,406.48Z" style="fill:#00838E"></path><path d="M309.53,407.81l-.09,0c-.78-.43-2.29-2.12-2.1-3a.6.6,0,0,1,.59-.48,1,1,0,0,1,.78.24c.87.73,1,2.95,1,3.05a.2.2,0,0,1-.09.17A.17.17,0,0,1,309.53,407.81Zm-1.48-3.13H308c-.24,0-.26.14-.27.19-.11.51.84,1.78,1.62,2.39a4.35,4.35,0,0,0-.85-2.42A.63.63,0,0,0,308.05,404.68Z" style="fill:#00838E"></path><path d="M261.17,408.08a2.84,2.84,0,0,1-1.86-.48,1,1,0,0,1-.32-.89.6.6,0,0,1,.31-.48c.95-.53,4,1,4.36,1.23a.17.17,0,0,1,.09.19.17.17,0,0,1-.15.15A13.1,13.1,0,0,1,261.17,408.08Zm-1.35-1.6a.7.7,0,0,0-.35.07.23.23,0,0,0-.12.19.68.68,0,0,0,.21.59c.46.42,1.73.49,3.44.21A9.76,9.76,0,0,0,259.82,406.48Z" style="fill:#00838E"></path><path d="M263.57,407.81l-.08,0c-.92-.42-2.72-2.09-2.56-3,0-.2.19-.46.7-.51a1.32,1.32,0,0,1,1,.31c1,.81,1.12,2.89,1.13,3a.21.21,0,0,1-.08.16A.25.25,0,0,1,263.57,407.81Zm-1.81-3.13h-.11c-.33,0-.35.17-.36.21-.1.52,1.13,1.83,2.06,2.4a4.13,4.13,0,0,0-1-2.37A.94.94,0,0,0,261.76,404.68Z" style="fill:#00838E"></path><path d="M341.57,203l7.35.36-3.91-8s-6.43-.09-7.48,4.85Z" style="fill:#ffb573"></path><polygon points="354.86 199.51 350.97 192.45 345.01 195.38 348.92 203.38 354.86 199.51" style="fill:#ffb573"></polygon><rect x="343.09" y="145.67" width="10.79" height="43" transform="translate(493.63 -191.04) rotate(86.43)" style="fill:#00838E"></rect><rect x="343.95" y="159.58" width="10.79" height="43" transform="translate(508.33 -178.86) rotate(86.43)" style="fill:#fff;opacity:0.5"></rect><rect x="343.95" y="159.58" width="10.79" height="43" transform="translate(508.33 -178.86) rotate(86.43)" style="fill:#00838E;opacity:0.5"></rect></g><g id="freepik--Spreadsheets--inject-77"><path d="M333.78,355.56,125.19,338.85a9.94,9.94,0,0,1-9.09-10.67l9.06-113.12A9.93,9.93,0,0,1,135.83,206l208.59,16.7a10,10,0,0,1,9.09,10.67l-9.06,113.13A10,10,0,0,1,333.78,355.56Z" style="fill:#00838E"></path><path d="M333.78,355.56,125.19,338.85a9.94,9.94,0,0,1-9.09-10.67l9.06-113.12A9.93,9.93,0,0,1,135.83,206l208.59,16.7a10,10,0,0,1,9.09,10.67l-9.06,113.13A10,10,0,0,1,333.78,355.56Z" style="opacity:0.4"></path><path d="M330.07,355.26l-208.59-16.7a10,10,0,0,1-9.09-10.67l9.06-113.13a10,10,0,0,1,10.67-9.09l208.59,16.7A10,10,0,0,1,349.8,233l-9.06,113.13A10,10,0,0,1,330.07,355.26Z" style="fill:#00838E"></path><path d="M338.25,341.45,115.6,323.62a1.65,1.65,0,0,1-1.52-1.77l7.77-97a1.65,1.65,0,0,1,1.77-1.52l222.66,17.83A1.66,1.66,0,0,1,347.8,243l-7.77,97A1.65,1.65,0,0,1,338.25,341.45Z" style="fill:#fff"></path><path d="M136.24,220.81a3.54,3.54,0,0,1-.46,0,5.67,5.67,0,1,1,.46,0Zm0-10.6a4.94,4.94,0,1,0,.39,0Z" style="fill:#fff"></path><path d="M152.64,222.12h-.46a6,6,0,1,1,.46,0Zm0-10.6a4.89,4.89,0,1,0,3.17,8.61,4.84,4.84,0,0,0,1.7-3.33h0a4.89,4.89,0,0,0-4.48-5.26Z" style="fill:#fff"></path><path d="M169,223.44l-.46,0a5.64,5.64,0,1,1,.46,0Zm0-10.6a4.82,4.82,0,1,0,.39,0Z" style="fill:#fff"></path><rect x="173.35" y="228.48" width="10.79" height="43" transform="translate(442.19 91.76) rotate(94.58)" style="fill:#00838E"></rect><rect x="267.9" y="250.03" width="10.79" height="43" transform="translate(565.78 20.78) rotate(94.58)" style="fill:#00838E"></rect><rect x="218.95" y="260.1" width="10.79" height="43" transform="translate(522.96 80.44) rotate(94.58)" style="fill:#00838E;opacity:0.5"></rect><rect x="168.9" y="284.06" width="10.79" height="43" transform="translate(492.79 156.21) rotate(94.58)" style="fill:#00838E;opacity:0.5"></rect><rect x="314.62" y="267.76" width="10.79" height="43" transform="translate(633.9 -6.65) rotate(94.58)" style="fill:#00838E"></rect><rect x="313.51" y="281.66" width="10.79" height="43" transform="translate(646.55 9.46) rotate(94.58)" style="fill:#00838E;opacity:0.5"></rect><rect x="264.56" y="291.72" width="10.79" height="43" transform="translate(603.73 69.12) rotate(94.58)" style="fill:#00838E"></rect><path d="M346.7,256.68l0-.49-47.59-3.81,1.19-14.87-.49,0-1.19,14.87-47.34-3.79,1.19-14.87-.5,0-1.19,14.87-47.34-3.79,1.19-14.87-.49,0L203,244.68l-47.34-3.79L156.84,226l-.49,0-1.19,14.87-34.37-2.75,0,.49,34.37,2.75L154,254.75,119.68,252l0,.5L154,255.24l-1.07,13.4-34.37-2.75,0,.49,34.37,2.76-1.07,13.4-34.37-2.75,0,.49L151.78,283l-1.08,13.41-34.36-2.76,0,.5,34.37,2.75-1.08,13.4-34.37-2.75,0,.49,34.36,2.76-1.23,15.41.49,0,1.24-15.42,47.34,3.8-1.24,15.41.5,0,1.23-15.42,47.34,3.79L244,333.9l.49,0,1.23-15.42,47.34,3.79-1.23,15.42.49,0,1.24-15.42,47.58,3.81,0-.49-47.58-3.81,1.07-13.4,47.59,3.81,0-.5L294.7,308l1.07-13.4,47.59,3.81,0-.49-47.59-3.81,1.08-13.41,47.58,3.81,0-.49-47.58-3.81,1.07-13.4,47.59,3.81,0-.5L298,266.27l1.07-13.4ZM250.78,249l-1.07,13.41-47.34-3.79,1.07-13.41Zm-50.63,37.41,1.07-13.4,47.34,3.79-1.07,13.4Zm47.3,4.28-1.08,13.41L199,300.3l1.08-13.4Zm-46.19-18.18,1.07-13.4,47.34,3.79-1.07,13.4Zm-45.65-31.13L203,245.17l-1.07,13.41-47.34-3.79Zm-1.11,13.9,47.34,3.79-1.08,13.4-47.34-3.79Zm-1.12,13.9L200.72,273l-1.07,13.4-47.34-3.79Zm-1.11,13.89,47.34,3.79-1.07,13.41-47.34-3.79Zm-2.18,27.3,1.07-13.4,47.34,3.79-1.07,13.4Zm47.83,3.83L199,300.8l47.34,3.79L245.26,318Zm95.17,7.62L245.75,318l1.08-13.4,47.34,3.79Zm1.12-13.9-47.34-3.79,1.07-13.4,47.34,3.79ZM295.32,294,248,290.24l1.07-13.4,47.34,3.79Zm1.11-13.9-47.34-3.79,1.07-13.4,47.34,3.79Zm1.11-13.89-47.34-3.79L251.28,249l47.34,3.79Z" style="fill:#e0e0e0"></path></g></svg>
